<svg id="Ebene_2" data-name="Ebene 2" xmlns="http://www.w3.org/2000/svg" xmlns:xlink="http://www.w3.org/1999/xlink" viewBox="0 0 1006.4 225.16"><defs><style>.cls-1,.cls-2,.cls-3,.cls-4,.cls-7{fill:none;stroke-linecap:round;stroke-linejoin:round;}.cls-1{stroke-width:9px;stroke:url(#Unbenannter_Verlauf_58);}.cls-2,.cls-3,.cls-7{stroke-width:7px;}.cls-2{stroke:url(#Unbenannter_Verlauf_58-2);}.cls-3{stroke:url(#Unbenannter_Verlauf_58-3);}.cls-4{stroke-width:5px;stroke:url(#Unbenannter_Verlauf_58-4);}.cls-5{fill:url(#Unbenannter_Verlauf_58-5);}.cls-6{fill:url(#Unbenannter_Verlauf_58-6);}.cls-7{stroke:url(#Unbenannter_Verlauf_58-7);}</style><linearGradient id="Unbenannter_Verlauf_58" x1="219.71" y1="108.77" x2="219.71" y2="333.94" gradientUnits="userSpaceOnUse"><stop offset="0" stop-color="#1b1464"/><stop offset="0" stop-color="#1d1464"/><stop offset="0.14" stop-color="#4b0d61"/><stop offset="0.27" stop-color="#6f0760"/><stop offset="0.4" stop-color="#89035e"/><stop offset="0.51" stop-color="#99015d"/><stop offset="0.59" stop-color="#9e005d"/><stop offset="0.68" stop-color="#a3025f"/><stop offset="0.78" stop-color="#b10764"/><stop offset="0.88" stop-color="#c8106c"/><stop offset="0.99" stop-color="#e91c78"/><stop offset="1" stop-color="#ed1e79"/></linearGradient><linearGradient id="Unbenannter_Verlauf_58-2" x1="81.98" y1="120.17" x2="81.98" y2="152.31" xlink:href="#Unbenannter_Verlauf_58"/><linearGradient id="Unbenannter_Verlauf_58-3" x1="261.03" y1="237.85" x2="261.03" y2="252.18" xlink:href="#Unbenannter_Verlauf_58"/><linearGradient id="Unbenannter_Verlauf_58-4" x1="219.04" y1="265.8" x2="219.04" y2="285.82" xlink:href="#Unbenannter_Verlauf_58"/><linearGradient id="Unbenannter_Verlauf_58-5" x1="738.19" y1="154.05" x2="738.19" y2="227.44" xlink:href="#Unbenannter_Verlauf_58"/><linearGradient id="Unbenannter_Verlauf_58-6" x1="730.1" y1="246.33" x2="730.1" y2="282.34" xlink:href="#Unbenannter_Verlauf_58"/><linearGradient id="Unbenannter_Verlauf_58-7" x1="125.46" y1="152.07" x2="125.46" y2="163.03" xlink:href="#Unbenannter_Verlauf_58"/></defs><title>Logo-gradient</title><path class="cls-1" d="M107.59,191.18s-11.13-28.75,23.19-77.91c0,0,40.8,9.28,56.57,44.52,0,0,36.47-15,65.22-2,0,0,22.06-37.88,54.42-42.47,0,0,28.55,36.68,23.18,77.91,0,0,64.22,134.33-111.79,138.18C49.08,333.07,107.59,191.18,107.59,191.18Z" transform="translate(-93.32 -108.77)"/><circle class="cls-2" cx="81.98" cy="136.24" r="12.57"/><path class="cls-3" d="M274.63,248.68c-13.6-16.49-27.2,0-27.2,0" transform="translate(-93.32 -108.77)"/><path class="cls-4" d="M198,277.8s1.43,5,9.52,5.38c10.77.46,11.26-14.88,11.26-14.88,0,.43,2,14,9.83,14.88,9.27,1.08,11.47-4.81,11.47-4.81" transform="translate(-93.32 -108.77)"/><path class="cls-5" d="M376.86,159.74l-.2-5.39h9l.2,4.19q.41,9.57,4.49,15.75a24.84,24.84,0,0,0,15.26,10.87,27.34,27.34,0,0,0,6.48.5,25.46,25.46,0,0,0,6.28-.5,26.87,26.87,0,0,0,10.22-5.43,26.1,26.1,0,0,0,6.93-9,32.5,32.5,0,0,0,2.39-11.56l.2-4.79H447v4.39q0,12-5.68,20.44-8.17,12.06-21.64,14.95l-2.29.5-.1,16.16v16.05H408v-32l-1.4-.2a35.71,35.71,0,0,1-27.72-22.73A43.82,43.82,0,0,1,376.86,159.74Zm110.27-5.09c2-.2,3.72-.3,5.19-.3h.7A33.3,33.3,0,0,1,508.27,158a34.69,34.69,0,0,1,9,6.58,35.09,35.09,0,0,1,10.17,19.94q.4,2.59.4,22.83v19.75h-9v-7c0-1.13,0-2.83-.05-5.09s-.08-5-.15-8.17-.1-5.79-.1-7.78q-.1-12-.45-14.56a22.82,22.82,0,0,0-2.14-6.38,25.91,25.91,0,0,0-23.33-14.66A25.32,25.32,0,0,0,477.86,168a27,27,0,0,0-10.67,15.06q-.6,2.09-.8,23l-.1,20.84c-1.06,0-2.6,0-4.63.1s-3.54.1-4.54.1V211.68q0-26.22,1.3-30.91a35.65,35.65,0,0,1,13.66-19.94A34.31,34.31,0,0,1,487.13,154.65Zm80.86,1a30.08,30.08,0,0,1,5.19-.4,33.78,33.78,0,0,1,22.48,8.32,34.62,34.62,0,0,1,12,21.19,39.6,39.6,0,0,1,.5,5.79,34.77,34.77,0,0,1-4,16.25,36.17,36.17,0,0,1-6.88,9,33.78,33.78,0,0,1-24,9.77h-1.9a33.78,33.78,0,0,1-21.28-8.22,35.52,35.52,0,0,1-11.42-18.9,37.84,37.84,0,0,1-.8-8.47,27.61,27.61,0,0,1,.2-4.09,34.43,34.43,0,0,1,9.82-20.09A34.79,34.79,0,0,1,568,155.65Zm7.28,8.87a7.67,7.67,0,0,1-1.24-.1l-1-.15-.5-.05a32.57,32.57,0,0,0-10.17,2.59,25.53,25.53,0,0,0-15,19.75,31.63,31.63,0,0,0-.4,4.08,25.06,25.06,0,0,0,4.73,14.66,25.45,25.45,0,0,0,12.32,9.57,29,29,0,0,0,9.67,1.6,24.59,24.59,0,0,0,19.69-9.67A25,25,0,0,0,599,190.64a25.42,25.42,0,0,0-6.88-17.84A26.69,26.69,0,0,0,575.27,164.52Zm43.08,10.67-.1-20.84h9c.06,1.6.1,3.92.1,7s0,5.39.1,7l30.61.2,30.61.1c.06.93.1,2.38.1,4.34s0,3.44.1,4.43H658.23q-30.51,0-30.81.3v1.1q0,4.68.1,8.18.19,9.57.8,11.46a25.64,25.64,0,0,0,5.93,10.87,25,25,0,0,0,10.12,6.88,26.39,26.39,0,0,0,9,1.49,25.12,25.12,0,0,0,18.45-7.57,26.23,26.23,0,0,0,6.08-9.08,22.14,22.14,0,0,0,1.69-8.37v-1.1c1,.07,2.51.1,4.54.1s3.54,0,4.54.1l-.1,1.7A35,35,0,0,1,629,216.87a33.49,33.49,0,0,1-8.77-13.76,27.78,27.78,0,0,1-1.6-7.43Q618.44,192.24,618.35,175.19Zm109-18.84a33.6,33.6,0,0,1,6.18-.5,36,36,0,0,1,9,.89,39.71,39.71,0,0,1,9.07,3.59,35.62,35.62,0,0,1,7.88,6.09l.8.89q-3.19,3.3-6.49,6.48l-1.49-1.49a26.2,26.2,0,0,0-10.07-6.08A25.34,25.34,0,0,0,717,171.3a24.63,24.63,0,0,0-8.47,14.46,23.68,23.68,0,0,0-.4,5.08,22.81,22.81,0,0,0,.7,6.68,33.27,33.27,0,0,0,1.89,4.64,22.27,22.27,0,0,0,2.29,4,30.65,30.65,0,0,0,6,5.78,25.1,25.1,0,0,0,14.85,4.89,27.27,27.27,0,0,0,11.77-2.79,23.54,23.54,0,0,0,8.07-6.19l1-1.29c1.2,1.06,3,2.76,5.29,5.08l1.39,1.6-2.49,2.39A35.05,35.05,0,0,1,711,217.32a33.83,33.83,0,0,1-11.71-21.49,31.16,31.16,0,0,1-.4-5.19,34.66,34.66,0,0,1,1.69-10.46,34.22,34.22,0,0,1,10-15.51A35.35,35.35,0,0,1,727.32,156.35Zm74.58-.7a30.08,30.08,0,0,1,5.19-.4,33.78,33.78,0,0,1,22.48,8.32,34.56,34.56,0,0,1,12,21.19,38.26,38.26,0,0,1,.5,5.79,34.77,34.77,0,0,1-4,16.25,35.7,35.7,0,0,1-6.88,9,33.74,33.74,0,0,1-24,9.77h-1.89A33.83,33.83,0,0,1,784,217.32a35.5,35.5,0,0,1-11.41-18.9,37.26,37.26,0,0,1-.8-8.47,26.25,26.25,0,0,1,.2-4.09,35.15,35.15,0,0,1,29.91-30.21Zm7.28,8.87a7.79,7.79,0,0,1-1.25-.1l-1-.15-.5-.05a32.57,32.57,0,0,0-10.17,2.59,25.54,25.54,0,0,0-15.06,19.75,31.63,31.63,0,0,0-.4,4.08,25.07,25.07,0,0,0,4.74,14.66,25.47,25.47,0,0,0,12.31,9.57,29.07,29.07,0,0,0,9.67,1.6,24.59,24.59,0,0,0,19.7-9.67,25,25,0,0,0,5.73-16.16A25.42,25.42,0,0,0,826,172.8,26.69,26.69,0,0,0,809.18,164.52Zm43,62.62V154.35h4.59l4.59.1v36.39l.1,36.3Zm19.14,0V154.35h4.59l4.59.1v36.39l.1,36.3Zm37.79-69a34,34,0,0,1,16.55-4.09,39.36,39.36,0,0,1,6.68.6,34.33,34.33,0,0,1,19,10.47,35.37,35.37,0,0,1,9.32,19.74l.2,1.1h-9.17l-.6-2.69a26.42,26.42,0,0,0-13.36-17.15,26.09,26.09,0,0,0-12-3,22.41,22.41,0,0,0-3.69.3,27.6,27.6,0,0,0-12.86,5.68,24.66,24.66,0,0,0-7,9,26.07,26.07,0,0,0-2.44,11.07,25.28,25.28,0,0,0,8.08,18.94,28.56,28.56,0,0,0,10.46,6.09,23.09,23.09,0,0,0,7.18.89,28.08,28.08,0,0,0,6.68-.6,26.19,26.19,0,0,0,17.55-15.25,20.11,20.11,0,0,0,1.2-3.29l.2-1h9.67l.2,5q.2,5.58.2,16v11c-1.07-.07-2.59-.1-4.59-.1s-3.52,0-4.58-.1l-.1-6.78-.1-6.68-1.5,1.29a34.64,34.64,0,0,1-24.53,10,35.84,35.84,0,0,1-26.32-11.76A36.09,36.09,0,0,1,891.14,196a29.39,29.39,0,0,1-.6-6.48,41.71,41.71,0,0,1,.69-7.68,34.63,34.63,0,0,1,6.24-13.76A35.54,35.54,0,0,1,909.08,158.14ZM971.2,172.3l-.2-17.45h9v6.58c0,4.45.07,6.75.2,6.88s.83-.43,2.1-1.69a36,36,0,0,1,16.55-8.68,41.47,41.47,0,0,1,8.47-.7c1.13,0,2.36.07,3.69.2a34.23,34.23,0,0,1,15.75,6.33,34.62,34.62,0,0,1,11.07,12.92,34,34,0,0,1,3.49,15.45,37.27,37.27,0,0,1-1.59,11.17,34.61,34.61,0,0,1-12.82,17.45,34,34,0,0,1-20.39,6.68c-.2,0-.53,0-1-.05s-.8,0-1,0a34.71,34.71,0,0,1-21.64-9.18,36.14,36.14,0,0,1-6.28-7.77,32.31,32.31,0,0,1-4-9.08Q971.41,196.74,971.2,172.3Zm41.38-5.29a27.73,27.73,0,0,0-6.29-.79,25.09,25.09,0,0,0-18.94,8.37,25.46,25.46,0,0,0-6.48,12.56,24.7,24.7,0,0,0-.5,5.19,25.19,25.19,0,0,0,5.09,15.35,26.3,26.3,0,0,0,13.46,9.58,25.16,25.16,0,0,0,7.37.79,24.43,24.43,0,0,0,7.38-.89,25.39,25.39,0,0,0,7.28-3.39,25,25,0,0,0,8.43-9.43,26.18,26.18,0,0,0,2.94-12.11,25.38,25.38,0,0,0-4.79-15,26.69,26.69,0,0,0-6.58-6.48A28.24,28.24,0,0,0,1012.58,167Zm39.08,6.49a15.6,15.6,0,0,1,4.84-11.87,23.79,23.79,0,0,1,12.41-6,38.44,38.44,0,0,1,12.36,0,23.12,23.12,0,0,1,12.76,6.18,17.94,17.94,0,0,1,5.19,9.57,29,29,0,0,1,.5,5,27,27,0,0,1-1.5,8.57,14.35,14.35,0,0,1-6.43,8.28q-4.44,2.49-12.61,2.59-.3,0-.3,5.78l-.1,5.88c-1,.07-2.53.1-4.59.1s-3.59,0-4.58.1v-22l6.78-.1c4.52-.07,7.11-.23,7.77-.5l.6-.3a11.55,11.55,0,0,0,5.49-5.48,11.11,11.11,0,0,0-2-12.17,11.43,11.43,0,0,0-5.68-3.19,36.4,36.4,0,0,0-6-.3,35.62,35.62,0,0,0-6.88.4q-8.68,2-9.28,9.38l-.2,2.09h-8.57Zm18.15,52c-.07-1.06-.1-2.61-.1-4.63s0-3.54-.1-4.54l4.58.1h4.59c.07,1.06.1,2.59.1,4.58s0,3.53.1,4.59l-4.59-.1Z" transform="translate(-93.32 -108.77)"/><path class="cls-6" d="M387.42,247.53a16.37,16.37,0,0,1,3-.24,16.8,16.8,0,0,1,4.29.43,18.88,18.88,0,0,1,4.35,1.72,16.74,16.74,0,0,1,3.77,2.91l.39.43q-1.53,1.58-3.11,3.11l-.71-.72a12.59,12.59,0,0,0-4.83-2.91,12.14,12.14,0,0,0-12.08,2.43,11.76,11.76,0,0,0-4.06,6.93,11.26,11.26,0,0,0-.19,2.43,11.1,11.1,0,0,0,.33,3.2,15.64,15.64,0,0,0,.91,2.23,9.8,9.8,0,0,0,1.1,1.93,14.59,14.59,0,0,0,2.86,2.77,12.06,12.06,0,0,0,7.12,2.34,13,13,0,0,0,5.64-1.34,11.11,11.11,0,0,0,3.86-3l.48-.62c.57.51,1.42,1.32,2.53,2.44l.67.76L402.52,276a16.43,16.43,0,0,1-11.9,4.92A16.84,16.84,0,0,1,374,266.44a15.92,15.92,0,0,1-.19-2.48,16.75,16.75,0,0,1,.81-5,16.42,16.42,0,0,1,4.78-7.42A16.92,16.92,0,0,1,387.42,247.53Zm36.73-.19c.39,0,.8-.05,1.25-.05a12.07,12.07,0,0,1,1.52.09,16.71,16.71,0,0,1,10.37,4.92,16.22,16.22,0,0,1,4.92,11.9,16.39,16.39,0,0,1-6.78,13.56,15.41,15.41,0,0,1-9.79,3.35c-.39,0-.9,0-1.53-.1A17.17,17.17,0,0,1,414,276.57a16.3,16.3,0,0,1-5.06-9.32,17.19,17.19,0,0,1-.2-3.05,18.89,18.89,0,0,1,.2-3.11,16.84,16.84,0,0,1,5.35-9.45A16,16,0,0,1,424.15,247.34Zm3.44,4.58a11.22,11.22,0,0,0-2.1-.19,13,13,0,0,0-3.39.48,12.53,12.53,0,0,0-6.59,4.56A12.06,12.06,0,0,0,413,264.2a12.25,12.25,0,0,0,.71,4.1,11.74,11.74,0,0,0,3.23,4.92,13.14,13.14,0,0,0,5.23,3,11.8,11.8,0,0,0,3.34.39,12.28,12.28,0,0,0,3.44-.39,12,12,0,0,0,4.58-2.58,12.62,12.62,0,0,0,3.16-4.2,12.51,12.51,0,0,0-9.13-17.53Zm19.8,29.42v-35h4v35Zm9,0v-35h4v35Zm21.1-33.61a16.89,16.89,0,0,1,4.52-.61,16.69,16.69,0,0,1,15.63,11.16,12.38,12.38,0,0,1,.8,3.61.42.42,0,0,1,0,.24,11,11,0,0,1-2.17.09l-2-.05-.29-1.22a13.35,13.35,0,0,0-1.64-3.94,12.26,12.26,0,0,0-3.18-3.25,12.74,12.74,0,0,0-4.12-1.95,11,11,0,0,0-3-.37,12.23,12.23,0,0,0-7.37,2.41,11.89,11.89,0,0,0-4.5,6.4,14.35,14.35,0,0,0,.66,8.58,11.75,11.75,0,0,0,4.62,5.25A12.37,12.37,0,0,0,482,276a11.81,11.81,0,0,0,8.38-3.33,12.45,12.45,0,0,0,3.39-5.39l.28-.89h4.19l.09.89q.09,1,.09,7.5v6.61h-4v-2.81a23.24,23.24,0,0,0-.18-3.61l-.8.8a16.15,16.15,0,0,1-11.49,4.55,16.88,16.88,0,0,1-5-.8,16.47,16.47,0,0,1-5.77-3.26,16.88,16.88,0,0,1-4-5,14.64,14.64,0,0,1-1.7-7.26v-.8a19.51,19.51,0,0,1,.43-3.56,15.56,15.56,0,0,1,1.27-3.24A16.23,16.23,0,0,1,477.49,247.73Zm25.9,8.84,0-10.23h5V253l.81-.81a18.2,18.2,0,0,1,2.94-2.27,15.26,15.26,0,0,1,3.32-1.65,15.56,15.56,0,0,1,5.27-.81,16.68,16.68,0,0,1,4.66.62,15.74,15.74,0,0,1,4.66,2.15,17,17,0,0,1,7.34,13.33v1a16.35,16.35,0,0,1-6.87,13.25A17.13,17.13,0,0,1,519,281.12a16.4,16.4,0,0,1-6.79-2,17,17,0,0,1-8.51-11.32C503.52,267.09,503.43,263.35,503.39,256.57Zm19.87-4.17a14.3,14.3,0,0,0-5.73,0,13.44,13.44,0,0,0-4.77,2.34,11.57,11.57,0,0,0-3.54,4.35,12.6,12.6,0,0,0-1.29,5.54,11.61,11.61,0,0,0,.1,1.29,12.43,12.43,0,0,0,3.36,7.23,12.68,12.68,0,0,0,7.19,3.75,10.64,10.64,0,0,0,1.82.15,12.54,12.54,0,0,0,5.37-1.25,11.68,11.68,0,0,0,4.32-3.34,13.21,13.21,0,0,0,2.77-6.69,9.94,9.94,0,0,0,0-1.24,11.85,11.85,0,0,0-2.34-7.26A12.85,12.85,0,0,0,523.26,252.4Zm34.3-5.06c.38,0,.79-.05,1.24-.05a12.35,12.35,0,0,1,1.53.09,16.69,16.69,0,0,1,10.36,4.92,16.22,16.22,0,0,1,4.92,11.9,16.39,16.39,0,0,1-6.78,13.56,15.39,15.39,0,0,1-9.79,3.35c-.38,0-.89,0-1.53-.1a17.23,17.23,0,0,1-10.08-4.44,16.41,16.41,0,0,1-5.06-9.32,17.41,17.41,0,0,1-.19-3.05,19.09,19.09,0,0,1,.19-3.11,16.84,16.84,0,0,1,5.35-9.45A16,16,0,0,1,557.56,247.34Zm3.44,4.58a11.38,11.38,0,0,0-2.1-.19,13,13,0,0,0-3.4.48,12.6,12.6,0,0,0-6.59,4.56,12.13,12.13,0,0,0-2.48,7.43,12.26,12.26,0,0,0,.72,4.1,11.72,11.72,0,0,0,3.22,4.92,13.21,13.21,0,0,0,5.23,3,11.8,11.8,0,0,0,3.34.39,12.23,12.23,0,0,0,3.44-.39,12.06,12.06,0,0,0,4.59-2.58,12.45,12.45,0,0,0,3.15-4.2A12.51,12.51,0,0,0,561,251.92Zm32.91-4.87a16.67,16.67,0,0,1,3.34-.33,16.85,16.85,0,0,1,16.19,12.46,16.94,16.94,0,0,1,.58,4.35,16.7,16.7,0,0,1-1.68,7.35,16.49,16.49,0,0,1-4.77,5.93l-.91.67,4,3.86h-6.21c-.41-.35-1.06-1-1.95-1.81l-1.29.33a16.23,16.23,0,0,1-4,.43,13.41,13.41,0,0,1-1.86-.09,17.06,17.06,0,0,1-9.12-4l-1.34-1.1c0,.7,0,1.75-.05,3.15s0,2.45,0,4.1h-2.15l-2.2-.9v-9.65q0-9.56.19-10.84a16.68,16.68,0,0,1,4.49-9A16.46,16.46,0,0,1,593.91,247.05Zm4.82,4.11a12.13,12.13,0,0,0-1.48-.15,12.45,12.45,0,0,0-1.72.2,12.22,12.22,0,0,0-9.27,6.3,10.66,10.66,0,0,0-1.09,2.75,15.46,15.46,0,0,0-.29,3.41,11.56,11.56,0,0,0,.48,3.63,12.85,12.85,0,0,0,3.22,5.14,12.11,12.11,0,0,0,5.18,3,12.72,12.72,0,0,0,3.54.53,12.57,12.57,0,0,0,12.42-12.42c0-.29,0-.75-.1-1.39a12.44,12.44,0,0,0-10.89-11Zm32.76-3.43a16.89,16.89,0,0,1,4.52-.61,16.69,16.69,0,0,1,15.63,11.16,12.38,12.38,0,0,1,.8,3.61.42.42,0,0,1,0,.24,11,11,0,0,1-2.17.09l-2-.05-.29-1.22a13.35,13.35,0,0,0-1.64-3.94,12.26,12.26,0,0,0-3.18-3.25,12.74,12.74,0,0,0-4.12-1.95,11,11,0,0,0-3-.37,12.23,12.23,0,0,0-7.37,2.41,11.89,11.89,0,0,0-4.5,6.4,14.35,14.35,0,0,0,.66,8.58,11.75,11.75,0,0,0,4.62,5.25A12.37,12.37,0,0,0,636,276a11.81,11.81,0,0,0,8.38-3.33,12.45,12.45,0,0,0,3.39-5.39l.28-.89h4.19l.09.89q.09,1,.09,7.5v6.61h-4v-2.81a23.24,23.24,0,0,0-.18-3.61l-.8.8a16.15,16.15,0,0,1-11.49,4.55,16.88,16.88,0,0,1-5-.8,16.47,16.47,0,0,1-5.77-3.26,16.88,16.88,0,0,1-4-5,14.64,14.64,0,0,1-1.7-7.26v-.8a19.51,19.51,0,0,1,.43-3.56,15.56,15.56,0,0,1,1.27-3.24A16.23,16.23,0,0,1,631.49,247.73Zm43.07,5.55c3.54,0,6.16,0,7.85.06h8v4.27c-2.63,0-7.51,0-14,0s-15,.05-15,.05v4s.42,4.54.58,5.21a12.62,12.62,0,0,0,10.75,9.89c.7.06,1.22.09,1.57.09a11.85,11.85,0,0,0,8.29-3.29,12.51,12.51,0,0,0,4-8.22l.14-1.05h4.3l-.1,1.29a16,16,0,0,1-5.25,11.11,16.89,16.89,0,0,1-28.23-10.35c0-.25-.09-10.6-.09-10.6v-9.45h4.25c0,1,0,5.68,0,7.15m34.71-2.15v-4h4v4Zm0,30v-26h4v26Zm24-34c.38,0,.79-.05,1.24-.05a12.35,12.35,0,0,1,1.53.09,16.71,16.71,0,0,1,10.36,4.92,16.22,16.22,0,0,1,4.92,11.9,16.39,16.39,0,0,1-6.78,13.56,15.41,15.41,0,0,1-9.79,3.35c-.39,0-.89,0-1.53-.1a17.23,17.23,0,0,1-10.08-4.44,16.35,16.35,0,0,1-5.06-9.32,17.41,17.41,0,0,1-.19-3.05,19.09,19.09,0,0,1,.19-3.11,16.84,16.84,0,0,1,5.35-9.45A16,16,0,0,1,720.34,247.34Zm3.43,4.58a11.22,11.22,0,0,0-2.1-.19,13,13,0,0,0-3.39.48,12.56,12.56,0,0,0-6.59,4.56,12.06,12.06,0,0,0-2.48,7.43,12.5,12.5,0,0,0,.71,4.1,11.74,11.74,0,0,0,3.23,4.92,13.14,13.14,0,0,0,5.23,3,11.8,11.8,0,0,0,3.34.39,12.28,12.28,0,0,0,3.44-.39,12.06,12.06,0,0,0,4.59-2.58,12.59,12.59,0,0,0,3.15-4.2,12.51,12.51,0,0,0-9.13-17.53Zm32.82-4.68a14.66,14.66,0,0,1,3-.28,17.37,17.37,0,0,1,6.5,1c.73.28,1.16.44,1.29.47a10.81,10.81,0,0,1,3.2,2,16.16,16.16,0,0,1,5.44,7.79,12.56,12.56,0,0,1,.67,3.15c.06,1,.13,4.2.19,9.74a67.68,67.68,0,0,0,.55,9.22v1.2a5.72,5.72,0,0,1-1.65-.2h-1l-2.35.29v-9.84a100.68,100.68,0,0,0-.09-10.55,13.52,13.52,0,0,0-3.58-6.45,7.18,7.18,0,0,0-1.58-1.39,3.54,3.54,0,0,1-1-.47A12.3,12.3,0,0,0,760,251.3a12,12,0,0,0-9.17,4,12.65,12.65,0,0,0-3.2,6.31c-.13.67-.21,4.17-.27,10.51v10.21h-4V271.79c-.22-5.38-.19-8.62-.13-9.72a15.32,15.32,0,0,1,.67-3.51,16.25,16.25,0,0,1,4.75-7.31A17.09,17.09,0,0,1,756.59,247.24Zm25,15.15q.14,0,10.65-.05H802.7c0,.44,0,1.1,0,2s0,1.56,0,2H781.39v-1.95C781.39,263.08,781.47,262.42,781.61,262.39Zm42.59-15.87a21.79,21.79,0,0,1,3.29-.19,12.47,12.47,0,0,1,2.06.1l1.91.43a16.41,16.41,0,0,1,7.12,3.94,16.88,16.88,0,0,1,4.48,6.85,17.63,17.63,0,0,1,.91,5.45,16.52,16.52,0,0,1-2.86,9.45,18.59,18.59,0,0,1-3.87,4.21,16,16,0,0,1-6.93,3,12.55,12.55,0,0,1-2.58.19,22,22,0,0,1-3.77-.29,16.93,16.93,0,0,1-8.26-4.25l-.91-.81c0,.73,0,1.85,0,3.34s0,2.63,0,3.39h-4.3l.05-10c0-5.54.08-8.91.15-10.13a12.31,12.31,0,0,1,.71-3.53c.07-.19.17-.49.31-.91s.24-.67.29-.78l.26-.63a6.23,6.23,0,0,1,.38-.74l.51-.74c.2-.3.45-.66.74-1.07a16.64,16.64,0,0,1,4.63-4.11A15.86,15.86,0,0,1,824.2,246.52Zm5.18,4.59a16.33,16.33,0,0,0-2.86-.33,8.15,8.15,0,0,0-1.58.14,12.48,12.48,0,0,0-8.36,5.11,10.25,10.25,0,0,0-1.86,4.3,13.41,13.41,0,0,0-.34,3.29,10.58,10.58,0,0,0,.1,1.44,11.84,11.84,0,0,0,4.18,7.64,12.06,12.06,0,0,0,8.09,3.06,10.3,10.3,0,0,0,1.63-.1,11.92,11.92,0,0,0,6.68-3.1,12.29,12.29,0,0,0,4.16-9.22A12.9,12.9,0,0,0,839,261a12.18,12.18,0,0,0-3.37-6.4A11.84,11.84,0,0,0,829.38,251.11Zm19,30.23v-35h2l2,0v17.5l.05,17.45Zm21.1-33.61a16.89,16.89,0,0,1,4.52-.61,16.69,16.69,0,0,1,15.63,11.16,12.38,12.38,0,0,1,.8,3.61.42.42,0,0,1,0,.24,11,11,0,0,1-2.17.09l-2-.05-.29-1.22a13.35,13.35,0,0,0-1.64-3.94,12.26,12.26,0,0,0-3.18-3.25,12.74,12.74,0,0,0-4.12-1.95,11,11,0,0,0-3-.37,12.23,12.23,0,0,0-7.37,2.41,11.89,11.89,0,0,0-4.5,6.4,14.35,14.35,0,0,0,.66,8.58,11.85,11.85,0,0,0,4.61,5.25A12.43,12.43,0,0,0,874,276a11.81,11.81,0,0,0,8.38-3.33,12.45,12.45,0,0,0,3.39-5.39l.28-.89h5.19l.09.89q.09,1,.09,7.5v6.61h-5v-2.81a23.24,23.24,0,0,0-.18-3.61l-.8.8a16.15,16.15,0,0,1-11.49,4.55,16.83,16.83,0,0,1-5-.8,16.38,16.38,0,0,1-5.77-3.26,16.88,16.88,0,0,1-4-5,14.64,14.64,0,0,1-1.7-7.26v-.8a19.51,19.51,0,0,1,.43-3.56,15.56,15.56,0,0,1,1.27-3.24A16.23,16.23,0,0,1,869.49,247.73Zm43.79,5.55c3.55,0,6.17,0,7.85.06h8.26v4.27c-2.91,0-7.79,0-14.3,0s-14.7.05-14.7.05v4s.14,4.54.3,5.21a12.62,12.62,0,0,0,10.75,9.89c.7.06,1.22.09,1.57.09a11.83,11.83,0,0,0,8.29-3.29,12.51,12.51,0,0,0,4-8.22l.14-1.05h4.3l-.1,1.29a16,16,0,0,1-5.25,11.11,16.89,16.89,0,0,1-28.23-10.35c0-.25.19-10.6.19-10.6v-9.45h4c0,1,0,2.11,0,3.58s.05,3.34.05,3.34m48.86,7.08h9.56a8.93,8.93,0,0,1,0,1.25,16.79,16.79,0,0,0,0,1.75H938.39v17h-4v-8.45c.12-4.59.15-7.55.21-8.89a18.15,18.15,0,0,1,.48-3.48,16.1,16.1,0,0,1,3.63-6.88,16.66,16.66,0,0,1,12.71-5.78A26,26,0,0,1,954,247a15.59,15.59,0,0,1,7.36,3,17,17,0,0,1,5.2,6.13,10.55,10.55,0,0,1,1.25,3.2c0,.07-2.3,0-2.3,0h-2.29l-.48-.92a13.09,13.09,0,0,0-2.29-3.3,12.06,12.06,0,0,0-9-3.87,12.51,12.51,0,0,0-5,1.05,13.23,13.23,0,0,0-6.78,8m48.62-13c.38,0,.8-.05,1.24-.05a12.35,12.35,0,0,1,1.53.09,16.74,16.74,0,0,1,10.37,4.92,16.9,16.9,0,0,1-1.87,25.46,15.39,15.39,0,0,1-9.79,3.35c-.38,0-.89,0-1.53-.1a17.23,17.23,0,0,1-10.08-4.44,16.41,16.41,0,0,1-5.06-9.32,17.41,17.41,0,0,1-.19-3.05,19.09,19.09,0,0,1,.19-3.11,16.9,16.9,0,0,1,5.35-9.45A16,16,0,0,1,988.29,247.34Zm3.44,4.58a11.38,11.38,0,0,0-2.1-.19,12.83,12.83,0,0,0-3.39.48,12.59,12.59,0,0,0-6.6,4.56,12.13,12.13,0,0,0-2.48,7.43,12.26,12.26,0,0,0,.72,4.1,11.72,11.72,0,0,0,3.22,4.92,13.21,13.21,0,0,0,5.23,3,11.88,11.88,0,0,0,3.35.39,12.2,12.2,0,0,0,3.43-.39,12.06,12.06,0,0,0,4.59-2.58,12.45,12.45,0,0,0,3.15-4.2,12.07,12.07,0,0,0,1.15-5.25,12.51,12.51,0,0,0-10.27-12.28Zm32.91-4.87a16.67,16.67,0,0,1,3.34-.33,16.84,16.84,0,0,1,16.77,16.81,16.7,16.7,0,0,1-1.68,7.35,16.49,16.49,0,0,1-4.77,5.93l-.91.67,4,3.86h-6.21c-.41-.35-1.06-1-2-1.81l-1.29.33a16.2,16.2,0,0,1-4,.43,13.58,13.58,0,0,1-1.87-.09,17.06,17.06,0,0,1-9.12-4l-1.34-1.1c0,.7,0,1.75,0,3.15s0,2.45,0,4.1h-2.15l-1.93-.9v-9.65a93.24,93.24,0,0,1-.08-10.84,16.68,16.68,0,0,1,4.49-9A16.46,16.46,0,0,1,1024.64,247.05Zm4.82,4.11A12.13,12.13,0,0,0,1028,251a12.45,12.45,0,0,0-1.72.2,12.19,12.19,0,0,0-9.26,6.3,10.37,10.37,0,0,0-1.1,2.75,16.1,16.1,0,0,0-.29,3.41,11.56,11.56,0,0,0,.48,3.63,12.85,12.85,0,0,0,3.22,5.14,12.11,12.11,0,0,0,5.18,3,12.72,12.72,0,0,0,3.54.53,12.57,12.57,0,0,0,12.42-12.42c0-.29,0-.75-.1-1.39a12.44,12.44,0,0,0-10.89-11Zm27.74-3.73a9.66,9.66,0,0,1,2.58-.29,11.35,11.35,0,0,1,2.4.24,9.58,9.58,0,0,1,4.88,3l.81.91,1.2-1.19a9.53,9.53,0,0,1,2.53-1.87,10.17,10.17,0,0,1,4.5-1.05,9.53,9.53,0,0,1,6.54,2.41,11.23,11.23,0,0,1,3.52,6q.22,1.05.23,13.95v12.18l-2,.05a9.44,9.44,0,0,1-2.07-.1c-.07-.06-.11-2.13-.14-6.21s-.07-8.25-.1-12.51-.08-6.59-.14-7a7,7,0,0,0-1.27-2.67,6.29,6.29,0,0,0-2.16-1.86,5.51,5.51,0,0,0-2.31-.43,5,5,0,0,0-2.26.43,6.59,6.59,0,0,0-1.58,1.17,5.19,5.19,0,0,0-1.15,1.5,8,8,0,0,0-.68,2.94q-.12,1.78-.17,11.82l-.09,12.51h-4.91V268.88c.39-6.75.34-10.67.28-11.75a7.58,7.58,0,0,0-.77-3,6.64,6.64,0,0,0-1.17-1.53,5.13,5.13,0,0,0-1.55-1.15,5.52,5.52,0,0,0-2.39-.43,5.37,5.37,0,0,0-2.34.43,6.18,6.18,0,0,0-2.67,2.58,6.5,6.5,0,0,0-.74,2.77c0,1-.09,5-.65,12v13.51h-4V266.39q0-8.31.15-9.91a9.55,9.55,0,0,1,1-3.32A10,10,0,0,1,1057.2,247.43Z" transform="translate(-93.32 -108.77)"/><polygon class="cls-7" points="125.46 159.53 128.97 155.57 121.96 155.57 125.46 159.53"/></svg>