<svg id="Ebene_2" data-name="Ebene 2" xmlns="http://www.w3.org/2000/svg" width="356.86mm" height="79.43mm" viewBox="0 0 1011.58 225.16"><defs><style>.cls-1,.cls-2,.cls-3,.cls-4,.cls-5{fill:none;stroke:#fff;}.cls-1,.cls-3,.cls-4,.cls-5{stroke-linecap:round;}.cls-1,.cls-4,.cls-5{stroke-linejoin:round;}.cls-1{stroke-width:9px;}.cls-2,.cls-3{stroke-miterlimit:10;}.cls-2,.cls-3,.cls-4{stroke-width:6px;}.cls-5{stroke-width:3px;}.cls-6{font-size:99.71px;fill:#fff;font-family:Bluerabbit-Regular, Bluerabbit;}.cls-7{font-size:47.76px;}</style></defs><path class="cls-1" d="M218.38,329.36c176-3.85,111.79-138.18,111.79-138.18C335.54,150,307,113.27,307,113.27c-32.36,4.59-54.42,42.47-54.42,42.47-28.75-13-65.22,2-65.22,2-15.77-35.24-56.57-44.52-56.57-44.52-34.32,49.16-23.19,77.91-23.19,77.91S49.08,333.07,218.38,329.36Z" transform="translate(-93.32 -108.77)"/><circle class="cls-2" cx="81.98" cy="136.24" r="12.57"/><path class="cls-3" d="M247.43,248.68s13.6-16.49,27.2,0" transform="translate(-93.32 -108.77)"/><polygon class="cls-4" points="121.96 155.57 128.97 155.57 125.46 159.53 121.96 155.57"/><path class="cls-5" d="M200,275.06c1.77,5.59,6.34,9.18,10.3,8.91,5.13-.36,10.52-7.26,8.46-15.67,1.29,9.78,7.1,15.35,11.25,14.78,3.76-.52,8-6.05,8.33-6.94" transform="translate(-93.32 -108.77)"/><text class="cls-6" transform="translate(278.06 112.58)">YNOTCOLLAB?<tspan class="cls-7"><tspan x="0" y="57.32">Collaboration-PLatform</tspan></tspan></text></svg>