<svg id="Ebene_2" data-name="Ebene 2" xmlns="http://www.w3.org/2000/svg" xmlns:xlink="http://www.w3.org/1999/xlink" viewBox="0 0 252.78 225.16"><defs><style>.cls-1,.cls-2,.cls-3,.cls-4,.cls-5{fill:none;stroke-linecap:round;stroke-linejoin:round;}.cls-1{stroke-width:9px;stroke:url(#Unbenannter_Verlauf_58);}.cls-2,.cls-3,.cls-5{stroke-width:7px;}.cls-2{stroke:url(#Unbenannter_Verlauf_58-2);}.cls-3{stroke:url(#Unbenannter_Verlauf_58-3);}.cls-4{stroke-width:5px;stroke:url(#Unbenannter_Verlauf_58-4);}.cls-5{stroke:url(#Unbenannter_Verlauf_58-5);}</style><linearGradient id="Unbenannter_Verlauf_58" x1="132.49" y1="6.35" x2="132.49" y2="231.52" gradientUnits="userSpaceOnUse"><stop offset="0" stop-color="#1b1464"/><stop offset="0" stop-color="#1d1464"/><stop offset="0.14" stop-color="#4b0d61"/><stop offset="0.27" stop-color="#6f0760"/><stop offset="0.4" stop-color="#89035e"/><stop offset="0.51" stop-color="#99015d"/><stop offset="0.59" stop-color="#9e005d"/><stop offset="0.68" stop-color="#a3025f"/><stop offset="0.78" stop-color="#b10764"/><stop offset="0.88" stop-color="#c8106c"/><stop offset="0.99" stop-color="#e91c78"/><stop offset="1" stop-color="#ed1e79"/></linearGradient><linearGradient id="Unbenannter_Verlauf_58-2" x1="81.98" y1="120.17" x2="81.98" y2="152.31" xlink:href="#Unbenannter_Verlauf_58"/><linearGradient id="Unbenannter_Verlauf_58-3" x1="173.81" y1="135.43" x2="173.81" y2="149.76" xlink:href="#Unbenannter_Verlauf_58"/><linearGradient id="Unbenannter_Verlauf_58-4" x1="131.82" y1="163.38" x2="131.82" y2="183.4" xlink:href="#Unbenannter_Verlauf_58"/><linearGradient id="Unbenannter_Verlauf_58-5" x1="125.46" y1="152.07" x2="125.46" y2="163.03" xlink:href="#Unbenannter_Verlauf_58"/></defs><title>tony</title><path class="cls-1" d="M20.37,88.76S9.24,60,43.55,10.85c0,0,40.81,9.28,56.58,44.52,0,0,36.47-15,65.22-2,0,0,22.06-37.88,54.42-42.47,0,0,28.54,36.68,23.18,77.91,0,0,64.22,134.33-111.79,138.18C-38.14,230.65,20.37,88.76,20.37,88.76Z" transform="translate(-6.1 -6.35)"/><circle class="cls-2" cx="81.98" cy="136.24" r="12.57"/><path class="cls-3" d="M187.41,146.26c-13.6-16.49-27.21,0-27.21,0" transform="translate(-6.1 -6.35)"/><path class="cls-4" d="M110.78,175.38s1.43,5,9.51,5.38c10.78.46,11.27-14.88,11.27-14.88,0,.43,2,14,9.83,14.88,9.27,1.08,11.46-4.81,11.46-4.81" transform="translate(-6.1 -6.35)"/><polygon class="cls-5" points="125.46 159.53 128.97 155.57 121.96 155.57 125.46 159.53"/></svg>