<svg id="Ebene_1" data-name="Ebene 1" xmlns="http://www.w3.org/2000/svg" width="1838.04" height="831.98" viewBox="0 0 1838.04 831.98"><defs><style>.cls-1,.cls-2,.cls-5{fill:#baeaf7;}.cls-1{opacity:0.48;}.cls-2{opacity:0.34;}.cls-3{fill:#aa81ae;opacity:0.72;}.cls-3,.cls-4{isolation:isolate;}.cls-4{fill:#e55196;opacity:0.62;}.cls-5{opacity:0.37;}</style></defs><title>bg</title><path class="cls-1" d="M-16.21,224C-102.65,416,84.63,721,84.63,721L1765,841,1528.33,43S1425.94,5.75,1287.93,9.25C1126,13.36,1080.64,121.41,833.75,220c-120.18,48-180.27,72-248,65C441.59,270.12,421.43,167.15,243.1,143c-37.36-5.06-160.87-21.78-234.21,49.55C6.34,195-7.6,204.87-16.21,224Z" transform="translate(49 -9.02)"/><path id="Pfad_3" data-name="Pfad 3" class="cls-2" d="M-49,220.5v230" transform="translate(49 -9.02)"/><path id="Pfad_1" data-name="Pfad 1" class="cls-3" d="M0,328.74s148.55-155,314.4-90.13,686.82,225.33,838.24,182.07,360.08-338.9,544.41-310.06,34.69,558.83,34.69,558.83L0,507.21Z" transform="translate(49 -9.02)"/><path id="Pfad_2" data-name="Pfad 2" class="cls-4" d="M408.45,445.25s369.76-385.77,959.68,0S408.45,445.25,408.45,445.25Z" transform="translate(49 -9.02)"/><path class="cls-5" d="M423,960" transform="translate(49 -9.02)"/></svg>