<svg id="Ebene_1" data-name="Ebene 1" xmlns="http://www.w3.org/2000/svg" width="1366" height="307" viewBox="0 0 1366 307"><defs><style>.cls-1{fill:#baeaf7;opacity:0.48;}.cls-2{fill:#e55196;opacity:0.62;}.cls-2,.cls-3{isolation:isolate;}.cls-3{fill:#aa81ae;opacity:0.72;}</style></defs><title>Zeichenfläche 1</title><path class="cls-1" d="M-38.21,118.75c-86.44,165,100.84,427.12,100.84,427.12L1743,649,1546,53S1419,6,1281,9c-161.88,3.53-222.36,21.59-469.25,106.32-120.18,41.24-180.27,61.86-248,55.86C419.59,158.39,399.43,69.9,221.1,49.14,183.74,44.8,60.23,30.42-13.11,91.72-15.66,93.86-29.6,102.31-38.21,118.75Z"/><path id="Pfad_2" data-name="Pfad 2" class="cls-2" d="M159.45,329.25C261.94,213.93,366.46,169.34,421,151c317.4-106.72,612.5,114.16,698.13,178.25,81.64,61.11,143.26,107.24,132.7,138.49C1223.74,550.8,710.71,455.84,159.45,329.25Z"/><path id="Pfad_1" data-name="Pfad 1" class="cls-3" d="M0,202.74s148.55-155,314.4-90.13c359.84,140.8,554.85,256.17,838.24,182.07C1373.31,237,1427,23.89,1546,53c120.06,29.38,166.22,271.12,185.74,490.45L0,381.21Z"/></svg>